<svg width="217" height="128" viewBox="0 0 217 128" fill="none" xmlns="http://www.w3.org/2000/svg">
<path d="M164.46 74.16C163.94 72.34 162.97 70.85 162.09 69.48C161.53 68.63 160.91 67.65 160.56 66.7C160.18 65.62 159.67 64.67 159.18 63.76C158.72 62.91 158.29 62.12 158.08 61.38C157.69 60.07 157.92 58.44 158.18 56.72C158.26 56.21 158.33 55.71 158.39 55.21C158.64 53.19 159.01 51.19 159.5 49.26C159.57 49.02 159.68 48.65 159.82 48.19C161.42 42.99 161.91 40.37 160.57 38.57C159.95 37.72 158.97 37.24 157.91 37.24C156.39 37.24 155.08 38.25 154.1 39.13C153.23 39.91 152.57 40.81 151.99 41.61L151.53 42.25C150.59 43.5 149.64 44.73 148.68 45.96C147.41 47.61 146.13 49.27 144.87 50.96C144.57 51.35 144.27 51.82 143.93 52.32C143.43 53.1 142.24 54.92 141.6 55.07C141.22 55.07 140.48 54.71 139.88 54.42L139.43 54.21C135.98 52.57 132.25 50.83 128.37 49.22C127.46 47.35 126.06 45.67 125.06 43.87C123.77 41.53 122.51 37.15 119.13 37.91C116.67 38.47 114.17 41.5 112.39 43.15C112.15 43.37 111.93 43.57 111.74 43.76C104.36 41.75 96.99 40.18 89.41 39.77C88.83 37.96 88.91 35.84 89.09 33.9C89.3 31.64 89.86 28.65 86.54 29.65C84.37 30.3 82.45 32.2 80.67 33.55C77.89 35.67 75.57 38.18 73.34 40.86C71 41.32 68.71 41.89 66.51 42.62C58.73 45.2 51.93 49.41 46.29 55.15C44.64 56.84 43.1 58.65 41.71 60.51C40.98 61.48 40.27 62.49 39.6 63.56L39.17 64.21C38.6 65.07 37.96 66.04 37.53 67.31C36.67 69.85 38.25 71.55 39 72.37L39.44 72.77C39.45 73 39.44 73.17 39.43 73.32C39.39 74.24 39.41 75.18 40.33 76.6C43.18 80.97 48.17 83.68 51.82 85.66L52.56 86.07C56.6 88.28 60.94 89.96 65.81 91.24C68.47 91.93 71.13 92.5 73.77 92.96C74.56 93.58 75.33 94.1 75.52 94.22C78.56 96.26 82.45 98.48 86.23 98.48C89.15 98.48 86.85 95.55 86.04 94.48C85.97 94.39 85.91 94.29 85.83 94.19C86.79 94.22 87.78 94.3 88.71 94.3C90.99 94.3 93.24 94.2 95.42 94.01C101.66 93.46 108.15 91.87 114.71 89.29C114.88 89.22 115.04 89.15 115.2 89.08C115.46 89.12 115.72 89.16 115.89 89.19C118.12 89.59 120.41 90.5 122.7 90.34C125.88 90.11 125.94 88.52 127.01 85.99C127.52 84.83 127.83 83.63 128.31 82.47C128.37 82.33 128.44 82.16 128.51 82.01C131.43 80.08 134.37 77.9 137.36 75.43C138.37 74.61 139.46 73.88 140.62 73.11C141.79 72.32 143.01 71.51 144.38 70.51C145.5 70.51 147.59 72.04 148.59 72.77L149.72 73.59C151.71 75.04 153.77 76.54 156.09 77.73C157.14 78.27 159.14 79.18 160.83 79.18C162.55 79.18 163.47 78.29 163.87 77.77C164.46 77.12 164.96 75.94 164.46 74.16Z" fill="#006CA2"/>
<path d="M137.67 68.58C136.44 69.39 135.19 70.23 133.97 71.23C126.68 77.22 119.75 81.48 112.78 84.22C106.71 86.61 100.73 88.08 95.0001 88.58C91.2701 88.92 87.3301 88.94 83.2801 88.66C78.6501 88.33 73.9001 87.57 69.1201 86.43C69.7301 85.08 70.2301 83.67 70.6101 82.24C71.0701 80.53 71.2301 78.3 71.0701 76.36C71.7801 76.6 72.4701 76.82 73.1801 77.08C75.4201 77.91 77.7001 78.45 79.9701 78.47C81.6701 78.47 82.8901 76.87 84.2201 75.35C85.6701 73.68 87.2001 72.04 87.5001 68.62C87.5801 67.81 87.8501 66.68 87.4801 66.09C87.0501 65.38 86.0701 65.5 85.5301 65.35C84.8101 65.17 84.1101 65.09 83.4101 65C81.3701 64.74 79.4701 64.89 77.4601 65.33C75.1801 65.82 72.8501 66.49 70.6401 67.58C70.3501 67.72 70.0701 67.9 69.7801 68.07C69.3401 66.17 68.6201 64.32 67.9401 62.5C67.4101 61.08 67.0601 59.65 65.8101 58.65C65.1401 58.11 63.4301 57.62 63.1101 58.79C62.9801 59.28 63.2801 59.99 63.6401 60.66C63.9301 61.2 64.2401 61.71 64.3701 62.08C65.2901 64.76 65.7201 67.58 66.1401 70.36C66.6501 73.67 66.7801 76.46 66.5501 79.82C66.4401 81.41 66.0001 82.94 65.4601 84.28C65.3101 84.64 65.1401 84.99 64.9501 85.33C61.4301 84.26 58.2201 82.95 55.2201 81.31L54.4701 80.9C51.2101 79.13 47.1501 76.92 44.9301 73.61C44.9501 73.35 44.9601 73.04 44.9401 72.65C45.6501 71.6 47.4501 71.99 48.4201 72.33C49.6701 72.77 50.8601 73.61 52.1801 73.49C53.4501 73.38 53.9201 72.1 53.2301 71.08C52.5701 70.08 50.9601 69.61 49.9301 69.1C48.7501 68.51 47.3501 68.25 46.0801 67.89C45.2801 67.66 44.4401 67.57 43.6001 67.55C43.6601 67.46 43.7001 67.38 43.7601 67.29C43.9301 67.03 44.1101 66.77 44.2601 66.51C44.8401 65.58 45.4801 64.69 46.1101 63.83C47.3601 62.16 48.7301 60.55 50.2201 59.03C51.4101 57.82 52.6701 56.68 53.9701 55.63C54.8301 54.99 56.9401 53.8 60.1001 54.39C63.4501 55.02 65.4301 56.63 71.3301 55.7C77.2401 54.77 77.9301 52 83.6901 52C89.4501 52 91.4701 56.5 98.5201 56.84C104.8 57.13 105.37 53.39 111.4 54.29C117.43 55.18 118 60.99 126.13 60.99C134.26 60.99 135.41 58.09 143.91 64.28C143.88 64.56 143.81 64.85 143.73 65.15C142.65 65.28 141.65 65.68 140.81 66.36C139.85 67.12 138.79 67.83 137.67 68.58Z" fill="#40C0E7"/>
<mask id="mask0_54_459" style="mask-type:luminance" maskUnits="userSpaceOnUse" x="43" y="52" width="101" height="37">
<path d="M137.67 68.58C136.44 69.39 135.19 70.23 133.97 71.23C126.68 77.22 119.75 81.48 112.78 84.22C106.71 86.61 100.73 88.08 95.0001 88.58C91.2701 88.92 87.3301 88.94 83.2801 88.66C78.6501 88.33 73.9001 87.57 69.1201 86.43C69.7301 85.08 70.2301 83.67 70.6101 82.24C71.0701 80.53 71.2301 78.3 71.0701 76.36C71.7801 76.6 72.4701 76.82 73.1801 77.08C75.4201 77.91 77.7001 78.45 79.9701 78.47C81.6701 78.47 82.8901 76.87 84.2201 75.35C85.6701 73.68 87.2001 72.04 87.5001 68.62C87.5801 67.81 87.8501 66.68 87.4801 66.09C87.0501 65.38 86.0701 65.5 85.5301 65.35C84.8101 65.17 84.1101 65.09 83.4101 65C81.3701 64.74 79.4701 64.89 77.4601 65.33C75.1801 65.82 72.8501 66.49 70.6401 67.58C70.3501 67.72 70.0701 67.9 69.7801 68.07C69.3401 66.17 68.6201 64.32 67.9401 62.5C67.4101 61.08 67.0601 59.65 65.8101 58.65C65.1401 58.11 63.4301 57.62 63.1101 58.79C62.9801 59.28 63.2801 59.99 63.6401 60.66C63.9301 61.2 64.2401 61.71 64.3701 62.08C65.2901 64.76 65.7201 67.58 66.1401 70.36C66.6501 73.67 66.7801 76.46 66.5501 79.82C66.4401 81.41 66.0001 82.94 65.4601 84.28C65.3101 84.64 65.1401 84.99 64.9501 85.33C61.4301 84.26 58.2201 82.95 55.2201 81.31L54.4701 80.9C51.2101 79.13 47.1501 76.92 44.9301 73.61C44.9501 73.35 44.9601 73.04 44.9401 72.65C45.6501 71.6 47.4501 71.99 48.4201 72.33C49.6701 72.77 50.8601 73.61 52.1801 73.49C53.4501 73.38 53.9201 72.1 53.2301 71.08C52.5701 70.08 50.9601 69.61 49.9301 69.1C48.7501 68.51 47.3501 68.25 46.0801 67.89C45.2801 67.66 44.4401 67.57 43.6001 67.55C43.6601 67.46 43.7001 67.38 43.7601 67.29C43.9301 67.03 44.1101 66.77 44.2601 66.51C44.8401 65.58 45.4801 64.69 46.1101 63.83C47.3601 62.16 48.7301 60.55 50.2201 59.03C51.4101 57.82 52.6701 56.68 53.9701 55.63C54.8301 54.99 56.9401 53.8 60.1001 54.39C63.4501 55.02 65.4301 56.63 71.3301 55.7C77.2401 54.77 77.9301 52 83.6901 52C89.4501 52 91.4701 56.5 98.5201 56.84C104.8 57.13 105.37 53.39 111.4 54.29C117.43 55.18 118 60.99 126.13 60.99C134.26 60.99 135.41 58.09 143.91 64.28C143.88 64.56 143.81 64.85 143.73 65.15C142.65 65.28 141.65 65.68 140.81 66.36C139.85 67.12 138.79 67.83 137.67 68.58Z" fill="white"/>
</mask>
<g mask="url(#mask0_54_459)">
<path d="M42.3201 69.55C42.3201 69.55 61.1901 75.69 94.5201 74.99C122.72 74.4 148.82 61.86 148.82 61.86L147.89 66.99L142.55 68.47C142.55 68.47 120.68 90.71 95.2601 91.32C86.1901 91.53 73.0501 90.52 64.9301 87.97C50.2601 83.33 43.1101 75.71 43.1101 75.71L42.3201 69.55Z" fill="white"/>
</g>
<path d="M54.3001 60.96C52.4501 61.06 51.0001 62.84 51.1001 64.91C51.2001 66.99 52.7801 68.58 54.6301 68.48C56.5001 68.37 57.9501 66.61 57.8501 64.53C57.7401 62.46 56.1601 60.85 54.3001 60.96Z" fill="#2F2F2F"/>
<g filter="url(#filter0_b_54_459)">
<rect y="72" width="217" height="56" fill="white" fill-opacity="0.09"/>
</g>
<defs>
<filter id="filter0_b_54_459" x="-30" y="42" width="277" height="116" filterUnits="userSpaceOnUse" color-interpolation-filters="sRGB">
<feFlood flood-opacity="0" result="BackgroundImageFix"/>
<feGaussianBlur in="BackgroundImageFix" stdDeviation="15"/>
<feComposite in2="SourceAlpha" operator="in" result="effect1_backgroundBlur_54_459"/>
<feBlend mode="normal" in="SourceGraphic" in2="effect1_backgroundBlur_54_459" result="shape"/>
</filter>
</defs>
</svg>
