<svg width="128" height="104" viewBox="0 0 128 104" fill="none" xmlns="http://www.w3.org/2000/svg">
<path d="M127.46 50.16C126.94 48.34 125.97 46.85 125.09 45.48C124.53 44.63 123.91 43.65 123.56 42.7C123.18 41.62 122.67 40.67 122.18 39.76C121.72 38.91 121.29 38.12 121.08 37.38C120.69 36.07 120.92 34.44 121.18 32.72C121.26 32.21 121.33 31.71 121.39 31.21C121.64 29.19 122.01 27.19 122.5 25.26C122.57 25.02 122.68 24.65 122.82 24.19C124.42 18.99 124.91 16.37 123.57 14.57C122.95 13.72 121.97 13.24 120.91 13.24C119.39 13.24 118.08 14.25 117.1 15.13C116.23 15.91 115.57 16.81 114.99 17.61L114.53 18.25C113.59 19.5 112.64 20.73 111.68 21.96C110.41 23.61 109.13 25.27 107.87 26.96C107.57 27.35 107.27 27.82 106.93 28.32C106.43 29.1 105.24 30.92 104.6 31.07C104.22 31.07 103.48 30.71 102.88 30.42L102.43 30.21C98.98 28.57 95.25 26.83 91.37 25.22C90.46 23.35 89.06 21.67 88.06 19.87C86.77 17.53 85.51 13.15 82.13 13.91C79.67 14.47 77.17 17.5 75.39 19.15C75.15 19.37 74.93 19.57 74.74 19.76C67.36 17.75 59.99 16.18 52.41 15.77C51.83 13.96 51.91 11.84 52.09 9.90002C52.3 7.64002 52.86 4.65001 49.54 5.65001C47.37 6.30001 45.45 8.20001 43.67 9.55001C40.89 11.67 38.57 14.18 36.34 16.86C34 17.32 31.71 17.89 29.51 18.62C21.73 21.2 14.93 25.41 9.29 31.15C7.64 32.84 6.1 34.65 4.71 36.51C3.98 37.48 3.27 38.49 2.6 39.56L2.17 40.21C1.6 41.07 0.96 42.04 0.53 43.31C-0.33 45.85 1.25 47.55 2 48.37L2.44 48.77C2.45 49 2.44 49.17 2.43 49.32C2.39 50.24 2.41 51.18 3.33 52.6C6.18 56.97 11.17 59.68 14.82 61.66L15.56 62.07C19.6 64.28 23.94 65.96 28.81 67.24C31.47 67.93 34.13 68.5 36.77 68.96C37.56 69.58 38.33 70.1 38.52 70.22C41.56 72.26 45.45 74.48 49.23 74.48C52.15 74.48 49.85 71.55 49.04 70.48C48.97 70.39 48.91 70.29 48.83 70.19C49.79 70.22 50.78 70.3 51.71 70.3C53.99 70.3 56.24 70.2 58.42 70.01C64.66 69.46 71.15 67.87 77.71 65.29C77.88 65.22 78.04 65.15 78.2 65.08C78.46 65.12 78.72 65.16 78.89 65.19C81.12 65.59 83.41 66.5 85.7 66.34C88.88 66.11 88.94 64.52 90.01 61.99C90.52 60.83 90.83 59.63 91.31 58.47C91.37 58.33 91.44 58.16 91.51 58.01C94.43 56.08 97.37 53.9 100.36 51.43C101.37 50.61 102.46 49.88 103.62 49.11C104.79 48.32 106.01 47.51 107.38 46.51C108.5 46.51 110.59 48.04 111.59 48.77L112.72 49.59C114.71 51.04 116.77 52.54 119.09 53.73C120.14 54.27 122.14 55.18 123.83 55.18C125.55 55.18 126.47 54.29 126.87 53.77C127.46 53.12 127.96 51.94 127.46 50.16Z" fill="#006CA2"/>
<path d="M100.67 44.58C99.44 45.39 98.19 46.23 96.97 47.23C89.68 53.22 82.75 57.48 75.78 60.22C69.71 62.61 63.73 64.08 58 64.58C54.27 64.92 50.33 64.94 46.28 64.66C41.65 64.33 36.9 63.57 32.12 62.43C32.73 61.08 33.23 59.67 33.61 58.24C34.07 56.53 34.23 54.3 34.07 52.36C34.78 52.6 35.47 52.82 36.18 53.08C38.42 53.91 40.7 54.45 42.97 54.47C44.67 54.47 45.89 52.87 47.22 51.35C48.67 49.68 50.2 48.04 50.5 44.62C50.58 43.81 50.85 42.68 50.48 42.09C50.05 41.38 49.07 41.5 48.53 41.35C47.81 41.17 47.11 41.09 46.41 41C44.37 40.74 42.47 40.89 40.46 41.33C38.18 41.82 35.85 42.49 33.64 43.58C33.35 43.72 33.07 43.9 32.78 44.07C32.34 42.17 31.62 40.32 30.94 38.5C30.41 37.08 30.06 35.65 28.81 34.65C28.14 34.11 26.43 33.62 26.11 34.79C25.98 35.28 26.28 35.99 26.64 36.66C26.93 37.2 27.24 37.71 27.37 38.08C28.29 40.76 28.72 43.58 29.14 46.36C29.65 49.67 29.78 52.46 29.55 55.82C29.44 57.41 29 58.94 28.46 60.28C28.31 60.64 28.14 60.99 27.95 61.33C24.43 60.26 21.22 58.95 18.22 57.31L17.47 56.9C14.21 55.13 10.15 52.92 7.93 49.61C7.95 49.35 7.96 49.04 7.94 48.65C8.65 47.6 10.45 47.99 11.42 48.33C12.67 48.77 13.86 49.61 15.18 49.49C16.45 49.38 16.92 48.1 16.23 47.08C15.57 46.08 13.96 45.61 12.93 45.1C11.75 44.51 10.35 44.25 9.08 43.89C8.28 43.66 7.44 43.57 6.6 43.55C6.66 43.46 6.7 43.38 6.76 43.29C6.93 43.03 7.11 42.77 7.26 42.51C7.84 41.58 8.48 40.69 9.11 39.83C10.36 38.16 11.73 36.55 13.22 35.03C14.41 33.82 15.67 32.68 16.97 31.63C17.83 30.99 19.94 29.8 23.1 30.39C26.45 31.02 28.43 32.63 34.33 31.7C40.24 30.77 40.93 28 46.69 28C52.45 28 54.47 32.5 61.52 32.84C67.8 33.13 68.37 29.39 74.4 30.29C80.43 31.18 81 36.99 89.13 36.99C97.26 36.99 98.41 34.09 106.91 40.28C106.88 40.56 106.81 40.85 106.73 41.15C105.65 41.28 104.65 41.68 103.81 42.36C102.85 43.12 101.79 43.83 100.67 44.58Z" fill="#40C0E7"/>
<mask id="mask0_1_669" style="mask-type:luminance" maskUnits="userSpaceOnUse" x="6" y="28" width="101" height="37">
<path d="M100.67 44.58C99.44 45.39 98.19 46.23 96.97 47.23C89.68 53.22 82.75 57.48 75.78 60.22C69.71 62.61 63.73 64.08 58 64.58C54.27 64.92 50.33 64.94 46.28 64.66C41.65 64.33 36.9 63.57 32.12 62.43C32.73 61.08 33.23 59.67 33.61 58.24C34.07 56.53 34.23 54.3 34.07 52.36C34.78 52.6 35.47 52.82 36.18 53.08C38.42 53.91 40.7 54.45 42.97 54.47C44.67 54.47 45.89 52.87 47.22 51.35C48.67 49.68 50.2 48.04 50.5 44.62C50.58 43.81 50.85 42.68 50.48 42.09C50.05 41.38 49.07 41.5 48.53 41.35C47.81 41.17 47.11 41.09 46.41 41C44.37 40.74 42.47 40.89 40.46 41.33C38.18 41.82 35.85 42.49 33.64 43.58C33.35 43.72 33.07 43.9 32.78 44.07C32.34 42.17 31.62 40.32 30.94 38.5C30.41 37.08 30.06 35.65 28.81 34.65C28.14 34.11 26.43 33.62 26.11 34.79C25.98 35.28 26.28 35.99 26.64 36.66C26.93 37.2 27.24 37.71 27.37 38.08C28.29 40.76 28.72 43.58 29.14 46.36C29.65 49.67 29.78 52.46 29.55 55.82C29.44 57.41 29 58.94 28.46 60.28C28.31 60.64 28.14 60.99 27.95 61.33C24.43 60.26 21.22 58.95 18.22 57.31L17.47 56.9C14.21 55.13 10.15 52.92 7.93 49.61C7.95 49.35 7.96 49.04 7.94 48.65C8.65 47.6 10.45 47.99 11.42 48.33C12.67 48.77 13.86 49.61 15.18 49.49C16.45 49.38 16.92 48.1 16.23 47.08C15.57 46.08 13.96 45.61 12.93 45.1C11.75 44.51 10.35 44.25 9.08 43.89C8.28 43.66 7.44 43.57 6.6 43.55C6.66 43.46 6.7 43.38 6.76 43.29C6.93 43.03 7.11 42.77 7.26 42.51C7.84 41.58 8.48 40.69 9.11 39.83C10.36 38.16 11.73 36.55 13.22 35.03C14.41 33.82 15.67 32.68 16.97 31.63C17.83 30.99 19.94 29.8 23.1 30.39C26.45 31.02 28.43 32.63 34.33 31.7C40.24 30.77 40.93 28 46.69 28C52.45 28 54.47 32.5 61.52 32.84C67.8 33.13 68.37 29.39 74.4 30.29C80.43 31.18 81 36.99 89.13 36.99C97.26 36.99 98.41 34.09 106.91 40.28C106.88 40.56 106.81 40.85 106.73 41.15C105.65 41.28 104.65 41.68 103.81 42.36C102.85 43.12 101.79 43.83 100.67 44.58Z" fill="white"/>
</mask>
<g mask="url(#mask0_1_669)">
<path d="M5.32 45.55C5.32 45.55 24.19 51.69 57.52 50.99C85.72 50.4 111.82 37.86 111.82 37.86L110.89 42.99L105.55 44.47C105.55 44.47 83.68 66.71 58.26 67.32C49.19 67.53 36.05 66.52 27.93 63.97C13.26 59.33 6.11 51.71 6.11 51.71L5.32 45.55Z" fill="white"/>
</g>
<path d="M17.3 36.96C15.45 37.06 14 38.84 14.1 40.91C14.2 42.99 15.78 44.58 17.63 44.48C19.5 44.37 20.95 42.61 20.85 40.53C20.74 38.46 19.16 36.85 17.3 36.96Z" fill="#2F2F2F"/>
</svg>
